<?xml version="1.0" standalone="no"?>
<!DOCTYPE svg PUBLIC "-//W3C//DTD SVG 20010904//EN"
 "http://www.w3.org/TR/2001/REC-SVG-20010904/DTD/svg10.dtd">
<svg version="1.0" xmlns="http://www.w3.org/2000/svg"
 width="625.000000pt" height="625.000000pt" viewBox="0 0 625.000000 625.000000"
 preserveAspectRatio="xMidYMid meet">
<metadata>
Created by potrace 1.14, written by Peter Selinger 2001-2017
</metadata>
<g transform="translate(0.000000,625.000000) scale(0.100000,-0.100000)"
fill="#000000" stroke="none">
<path d="M393 6236 c-90 -22 -164 -65 -239 -140 -76 -76 -113 -141 -139 -241
-13 -52 -15 -365 -15 -2732 0 -1912 3 -2687 11 -2725 39 -187 200 -348 387
-387 75 -16 5379 -16 5454 0 187 39 348 200 387 387 16 75 16 5379 0 5454 -39
187 -200 348 -387 387 -81 17 -5388 14 -5459 -3z m2332 -566 c-4 -21 9 -27 20
-10 3 6 1 10 -6 10 -21 0 7 23 30 25 13 1 17 -3 13 -13 -4 -11 -2 -13 9 -7 12
8 12 6 0 -8 -7 -9 -17 -15 -21 -12 -5 3 -12 0 -16 -6 -4 -6 0 -16 9 -21 9 -5
14 -15 11 -23 -4 -8 -11 -12 -17 -8 -6 3 -7 1 -3 -5 3 -6 15 -9 26 -7 13 3 17
-1 13 -11 -3 -8 -9 -14 -15 -14 -5 0 -6 -6 -1 -12 4 -7 6 -20 5 -30 -2 -9 2
-19 8 -23 5 -3 10 -1 10 4 0 6 5 11 12 11 6 0 2 -10 -10 -23 -27 -29 -27 -35
0 -58 24 -22 18 -25 -12 -7 -16 10 -22 10 -32 -1 -11 -11 -10 -12 1 -6 10 5
12 4 7 -4 -4 -6 -11 -9 -16 -6 -5 3 -11 1 -15 -5 -3 -5 -16 -10 -29 -10 -22 0
-218 -47 -296 -71 -182 -56 -538 -246 -685 -367 -473 -388 -757 -852 -869
-1417 -73 -371 -30 -810 117 -1185 76 -196 216 -447 330 -595 49 -64 222 -257
259 -289 237 -211 370 -302 613 -421 166 -81 358 -145 560 -187 159 -33 161
-33 451 -33 l292 0 -20 -50 c-11 -27 -24 -63 -29 -80 -5 -16 -15 -43 -23 -60
-8 -16 -22 -49 -31 -71 -16 -39 -19 -42 -68 -48 -145 -17 -490 9 -714 55 -156
31 -384 102 -481 149 -34 16 -65 30 -68 30 -7 0 -269 147 -319 179 -207 133
-473 374 -632 571 -271 337 -462 767 -545 1230 -29 164 -36 515 -14 698 74
603 371 1181 822 1603 79 74 245 206 334 266 132 88 401 222 590 292 102 37
345 96 360 86 5 -3 10 -1 10 6 0 7 10 9 30 6 18 -4 30 -2 30 4 0 6 4 8 9 4 6
-3 8 -14 6 -25z m82 -36 c-3 -3 -12 -4 -19 -1 -8 3 -5 6 6 6 11 1 17 -2 13 -5z
m-42 -474 c-3 -5 -1 -10 4 -10 6 0 11 5 11 10 0 6 5 10 10 10 6 0 10 -6 10
-14 0 -7 9 -16 21 -19 12 -3 18 -10 15 -16 -4 -5 -2 -13 4 -16 7 -4 3 -13 -10
-25 -26 -22 -25 -34 3 -48 15 -7 17 -11 6 -11 -16 -1 -23 -31 -7 -31 4 0 8 4
8 10 0 5 7 7 15 4 11 -5 8 -11 -12 -28 -26 -23 -20 -43 7 -25 11 6 12 9 2 9
-7 0 -10 5 -7 10 10 16 21 11 22 -10 1 -11 -3 -20 -9 -20 -6 0 -8 -3 -5 -6 10
-11 -13 -45 -26 -39 -7 4 -4 0 5 -8 21 -17 14 -27 -19 -27 -35 0 -205 -46
-281 -76 -350 -139 -594 -324 -817 -620 -428 -566 -458 -1305 -78 -1924 212
-346 558 -631 930 -766 197 -71 354 -102 569 -111 l150 -6 42 -136 c22 -74 40
-137 39 -138 -2 -1 -48 -6 -103 -12 -113 -12 -316 -1 -457 24 -220 39 -424
110 -635 222 -74 39 -120 69 -288 184 -23 16 -81 65 -130 111 -349 324 -563
711 -661 1193 -23 114 -26 526 -5 645 39 213 90 372 181 565 143 298 322 519
608 748 211 168 509 309 818 387 39 10 71 18 73 19 2 1 0 -3 -3 -9z m116 -127
c13 -16 12 -17 -3 -4 -17 13 -22 21 -14 21 2 0 10 -8 17 -17z m-94 -445 c-3
-8 -6 -5 -6 6 -1 11 2 17 5 13 3 -3 4 -12 1 -19z m-27 -36 c0 -13 4 -20 10
-17 6 4 7 11 4 17 -4 6 -2 8 3 5 6 -4 11 -18 11 -32 0 -20 -3 -23 -13 -15 -9
8 -15 8 -20 0 -3 -5 -1 -10 4 -10 6 0 11 -8 11 -17 0 -11 3 -14 8 -7 4 6 16
14 27 17 18 6 19 6 3 -6 -14 -11 -15 -16 -5 -27 10 -10 9 -12 -6 -7 -14 5 -16
3 -9 -11 10 -18 5 -45 -7 -38 -4 3 -8 -4 -8 -15 -1 -12 3 -17 10 -13 8 5 8 3
0 -7 -18 -19 -16 -34 2 -19 13 11 14 10 8 -6 -6 -17 -5 -18 13 -4 18 14 18 14
5 -2 -11 -14 -11 -18 -1 -18 8 0 10 -3 7 -6 -4 -4 -13 -2 -21 5 -11 9 -15 8
-20 -4 -3 -8 -12 -15 -20 -15 -8 0 -18 -4 -21 -10 -3 -6 1 -7 9 -4 9 3 16 1
16 -6 0 -6 -4 -9 -8 -6 -4 3 -66 -24 -137 -60 -171 -86 -273 -164 -390 -299
-83 -95 -106 -128 -154 -219 -150 -280 -178 -602 -79 -906 51 -157 183 -373
299 -489 127 -127 317 -248 481 -307 58 -20 163 -45 247 -58 l76 -12 52 -153
52 -154 -117 6 c-321 16 -627 137 -894 354 -267 217 -450 518 -540 893 -20 83
-23 120 -23 290 1 178 3 204 28 302 34 136 84 266 151 394 149 280 437 545
726 664 41 17 84 35 95 39 11 5 43 15 70 23 54 16 65 11 65 -30z m47 -174 c-3
-7 -5 -2 -5 12 0 14 2 19 5 13 2 -7 2 -19 0 -25z m-323 -580 c17 -18 28 -60
13 -51 -7 4 -6 -1 2 -10 12 -15 9 -21 -10 -19 -4 1 -6 -16 -5 -38 1 -21 -2
-36 -6 -34 -4 3 -8 0 -8 -5 0 -6 5 -11 11 -11 8 0 9 -4 0 -13 -6 -8 -8 -17 -4
-20 3 -4 1 -7 -6 -7 -8 0 -11 -6 -7 -16 3 -9 2 -12 -5 -9 -6 4 -10 1 -8 -6 3
-28 -1 -39 -17 -39 -9 0 -14 -6 -11 -12 2 -7 10 -12 16 -10 6 1 11 -5 11 -14
0 -8 -5 -12 -10 -9 -6 3 -13 -1 -16 -9 -3 -9 -10 -13 -15 -10 -5 3 -9 0 -9 -5
0 -14 13 -14 28 1 9 9 12 8 12 -4 0 -9 -5 -20 -11 -24 -6 -3 -9 -17 -6 -30 3
-17 1 -21 -7 -15 -8 7 -12 4 -12 -10 0 -12 5 -18 13 -15 10 4 10 1 1 -14 -7
-10 -15 -17 -19 -14 -4 2 -6 -4 -5 -14 0 -10 -6 -16 -16 -16 -10 1 -15 -3 -12
-8 3 -5 12 -7 20 -4 8 3 14 1 14 -4 0 -6 -4 -10 -10 -10 -5 0 -9 -12 -9 -27 1
-46 -13 -113 -22 -107 -5 3 -6 -2 -3 -10 3 -9 1 -16 -6 -16 -6 0 -8 -4 -5 -10
3 -5 3 -16 -2 -22 -4 -7 -8 -22 -8 -33 0 -11 -4 -26 -8 -32 -5 -7 -5 -17 -2
-23 3 -5 3 -10 -2 -10 -13 0 -32 -49 -21 -52 6 -2 5 -10 -4 -19 -8 -8 -13 -20
-10 -28 3 -8 -3 -18 -12 -23 -9 -5 -16 -17 -16 -26 -1 -30 -19 11 -41 89 -60
216 -20 491 102 699 39 67 119 169 120 154 0 -5 4 1 9 14 11 25 16 27 34 10z
m773 -456 c22 -12 60 -43 84 -71 59 -67 130 -104 726 -377 28 -13 62 -28 75
-33 28 -11 659 -293 778 -348 47 -22 117 -52 155 -68 39 -16 79 -38 90 -49
l20 -20 -21 17 c-19 16 -22 16 -27 3 -4 -9 -1 -15 6 -13 7 1 11 -3 10 -9 -1
-6 13 -10 32 -9 22 0 31 -3 26 -10 -12 -14 -20 -65 -10 -59 5 3 9 1 9 -5 0 -5
8 -12 18 -14 9 -2 5 -3 -10 -2 -34 2 -34 1 -6 -25 12 -11 19 -20 16 -20 -3 0
-88 -9 -189 -19 -101 -11 -278 -28 -394 -37 -115 -9 -213 -20 -217 -23 -9 -8
285 -226 501 -371 138 -93 159 -111 179 -152 28 -55 125 -380 126 -420 1 -14
4 -24 7 -22 4 2 9 -7 11 -21 3 -14 1 -25 -4 -25 -5 0 -6 -4 -3 -10 3 -5 0 -10
-7 -10 -8 -1 -4 -8 9 -19 l22 -18 -25 0 c-13 0 -27 4 -30 8 -3 5 -10 7 -15 4
-5 -3 -6 0 -4 7 6 15 -37 19 -51 5 -5 -4 -1 -5 8 -2 9 4 18 3 21 -2 3 -4 -10
-9 -28 -9 -21 -1 -32 3 -29 10 3 7 -5 12 -16 12 -11 0 -20 -4 -20 -8 0 -4 -7
-8 -15 -8 -9 0 -15 9 -15 21 0 18 -2 19 -15 9 -9 -7 -18 -10 -22 -7 -3 4 -12
2 -19 -4 -8 -7 -14 -6 -20 2 -5 8 -3 9 6 4 9 -5 11 -4 6 3 -4 7 -13 12 -21 12
-7 0 -16 6 -19 13 -3 6 -3 1 0 -13 6 -24 6 -24 -12 -9 -31 26 -48 34 -39 18 6
-11 5 -12 -6 -1 -7 6 -16 12 -21 12 -4 0 -6 -6 -4 -12 1 -7 1 -10 -1 -5 -3 4
-10 4 -15 1 -6 -4 -8 -2 -5 3 4 6 1 16 -7 22 -10 8 -19 6 -39 -9 l-25 -20 6
22 c4 17 2 20 -12 15 -9 -4 -15 -3 -12 2 7 11 -38 23 -58 15 -9 -3 -16 -1 -16
5 0 6 -12 11 -26 11 -14 0 -22 4 -19 10 3 6 -1 7 -9 4 -9 -3 -13 -10 -10 -15
3 -5 -3 -6 -12 -2 -11 4 -13 8 -6 11 7 2 12 8 12 13 0 6 -4 7 -10 4 -5 -3 -19
-1 -31 6 -13 6 -19 7 -15 1 3 -6 2 -13 -4 -17 -5 -3 -10 -1 -10 5 0 7 -6 10
-14 7 -8 -3 -17 -3 -20 1 -7 6 -21 10 -62 15 -12 2 -31 13 -44 25 -13 12 -26
18 -29 13 -4 -5 -17 -7 -31 -4 -22 4 -29 15 -49 81 -13 42 -38 127 -56 187
-19 61 -39 130 -45 154 -6 24 -15 40 -20 35 -10 -11 -110 -328 -110 -349 0 -8
-5 -15 -11 -15 -5 0 -8 4 -5 9 4 5 -3 7 -13 4 -11 -3 -17 -11 -15 -18 4 -10
-1 -12 -16 -8 -16 4 -18 8 -8 14 12 8 4 13 -14 10 -5 0 -8 4 -8 9 0 7 -7 7
-21 0 -11 -7 -23 -9 -26 -6 -4 3 -12 1 -20 -6 -11 -9 -13 -8 -11 3 2 10 -6 14
-29 13 -18 0 -33 3 -33 8 0 4 -5 8 -11 8 -5 0 -7 -5 -3 -12 5 -7 3 -8 -5 -3
-7 4 -10 16 -8 27 5 16 3 17 -10 7 -23 -19 -46 -20 -39 -2 5 12 1 14 -21 9
-21 -5 -24 -4 -13 4 11 7 11 10 2 10 -7 0 -10 5 -7 10 3 5 1 10 -4 10 -6 0
-11 -6 -12 -12 0 -7 -4 -3 -9 10 -5 12 -17 22 -25 22 -9 0 -13 -5 -10 -11 4
-6 -3 -5 -14 3 -13 8 -20 20 -17 31 2 9 1 15 -4 12 -4 -3 -10 1 -13 8 -2 6
-42 107 -87 222 -45 116 -93 237 -105 270 -12 33 -47 128 -78 210 -31 83 -90
238 -132 345 -113 287 -144 371 -151 408 -5 24 -13 34 -33 38 -48 10 -90 38
-107 70 -15 27 -15 38 -5 78 21 83 72 141 155 173 44 18 144 10 193 -15z
m1990 -994 c-3 -8 -6 -5 -6 6 -1 11 2 17 5 13 3 -3 4 -12 1 -19z m48 -7 c3 -5
0 -13 -6 -17 -8 -5 -9 -3 -4 6 6 10 4 12 -9 7 -10 -4 -15 -3 -11 3 8 13 22 13
30 1z m-649 -1368 c-4 -10 -4 -14 0 -11 4 4 16 3 28 -3 20 -10 20 -10 2 5 -21
17 -18 20 8 10 9 -3 16 -16 16 -28 0 -16 2 -18 9 -7 5 8 18 12 29 9 11 -3 26
-2 33 3 7 4 19 3 26 -3 12 -10 64 -25 115 -33 15 -2 37 -9 49 -15 11 -7 33
-14 47 -16 15 -3 43 -10 62 -16 19 -7 38 -11 43 -10 4 1 7 -2 7 -8 0 -6 3 -9
8 -8 4 1 26 -2 50 -6 37 -7 42 -11 37 -29 -2 -12 -2 -16 1 -9 3 6 12 12 20 12
10 0 12 -5 8 -12 -6 -9 -3 -9 9 0 9 8 22 12 29 9 7 -3 4 -6 -7 -6 -12 -1 -16
-4 -9 -9 6 -4 16 -16 23 -27 9 -14 11 -15 7 -3 -8 27 9 30 38 7 14 -11 30 -18
35 -15 5 3 11 -10 13 -28 2 -22 0 -32 -7 -29 -5 3 0 -4 13 -16 24 -24 31 -41
8 -22 -11 9 -15 9 -19 -1 -3 -8 -6 -6 -6 5 -1 15 -4 16 -22 7 -24 -13 -49 -7
-49 12 0 10 2 10 8 1 5 -8 15 -5 32 11 33 29 33 39 3 53 -25 12 -25 12 -7 -8
13 -15 15 -22 6 -31 -17 -17 -94 -10 -111 10 -13 16 -13 16 -7 -1 9 -28 -2
-38 -24 -20 -10 9 -17 20 -14 24 6 11 -57 22 -67 12 -5 -5 0 -9 13 -9 13 1 23
-3 23 -9 0 -5 -4 -8 -10 -6 -5 2 -20 4 -32 4 -13 1 -23 4 -23 7 0 3 -14 7 -31
8 -17 1 -38 9 -46 17 -8 8 -19 13 -24 10 -5 -4 -9 -1 -9 5 0 6 -4 9 -9 5 -5
-3 -15 0 -23 7 -7 7 -24 15 -37 16 -14 2 -34 10 -47 18 -19 13 -24 13 -38 -1
-9 -9 -16 -12 -16 -7 0 5 -10 12 -23 16 -46 11 -118 58 -113 72 5 12 2 12 -16
3 -19 -10 -20 -9 -14 17 6 22 5 25 -6 16 -21 -17 -60 -4 -53 19 5 14 2 17 -14
14 -15 -3 -18 0 -14 13 4 9 8 11 11 4 2 -7 11 -8 25 -3 12 4 28 6 35 4 6 -3
12 0 12 6 0 6 3 11 6 11 3 0 3 -8 0 -17z m91 -9 c-3 -3 -12 -4 -19 -1 -8 3 -5
6 6 6 11 1 17 -2 13 -5z m-192 -23 c3 -5 1 -12 -5 -16 -5 -3 -10 1 -10 9 0 18
6 21 15 7z m318 -157 c-4 -11 -9 -12 -19 -3 -17 14 -9 30 11 23 7 -3 11 -12 8
-20z m28 -27 c-10 -9 -11 -8 -5 6 3 10 9 15 12 12 3 -3 0 -11 -7 -18z m374
-77 c3 -6 -1 -7 -9 -4 -18 7 -21 14 -7 14 6 0 13 -4 16 -10z"/>
<path d="M2750 5686 c0 -2 8 -10 18 -17 15 -13 16 -12 3 4 -13 16 -21 21 -21
13z"/>
<path d="M2756 5505 c-3 -8 -1 -15 4 -15 6 0 10 7 10 15 0 8 -2 15 -4 15 -2 0
-6 -7 -10 -15z"/>
<path d="M2476 3763 c-6 -14 -5 -15 5 -6 7 7 10 15 7 18 -3 3 -9 -2 -12 -12z"/>
<path d="M5176 2333 c-6 -14 -5 -15 5 -6 7 7 10 15 7 18 -3 3 -9 -2 -12 -12z"/>
<path d="M4006 1408 c3 -5 10 -6 15 -3 13 9 11 12 -6 12 -8 0 -12 -4 -9 -9z"/>
<path d="M4320 1306 c0 -2 9 -6 20 -9 11 -3 18 -1 14 4 -5 9 -34 13 -34 5z"/>
<path d="M5213 1116 c1 -11 9 -21 17 -23 10 -3 11 -2 4 4 -6 4 -14 15 -17 23
-5 11 -6 9 -4 -4z"/>
<path d="M4610 950 c-8 -5 -12 -12 -9 -15 4 -3 12 1 19 10 14 17 11 19 -10 5z"/>
<path d="M4950 791 c0 -5 5 -13 10 -16 6 -3 10 -2 10 4 0 5 -4 13 -10 16 -5 3
-10 2 -10 -4z"/>
<path d="M5174 792 c3 -6 -2 -13 -11 -15 -14 -4 -13 -5 5 -6 23 -1 30 13 10
25 -6 4 -8 3 -4 -4z"/>
</g>
</svg>
